{
	"asset":{
		"version":"2.0",
		"generator":"Houdini GLTF 2.0 Exporter"
	},
	"accessors":[
		{
			"bufferView":0,
			"componentType":5125,
			"count":174354,
			"type":"SCALAR",
			"min":[0
			],
			"max":[61645
			]
		},
		{
			"bufferView":1,
			"componentType":5126,
			"count":61646,
			"type":"VEC3",
			"min":[-1.98415673,0.00134027004,-5.67150784
			],
			"max":[2.13772488,4.33628845,4.70696974
			]
		},
		{
			"bufferView":2,
			"componentType":5126,
			"count":61646,
			"type":"VEC3",
			"min":[-1,-1,-1
			],
			"max":[1,1,1
			]
		},
		{
			"bufferView":3,
			"componentType":5126,
			"count":61646,
			"type":"VEC2",
			"min":[0.000116578602,0.000116586685
			],
			"max":[0.999645531,0.999883473
			]
		},
		{
			"bufferView":4,
			"componentType":5126,
			"count":61646,
			"type":"VEC4",
			"min":[-1,-1,-1,1
			],
			"max":[1,1,1,1
			]
		}
	],
	"buffers":[
		{
			"uri":"militaryTruck_data.bin",
			"byteLength":3656424,
			"name":"main_buffer"
		}
	],
	"bufferViews":[
		{
			"buffer":0,
			"byteLength":697416,
			"target":34963
		},
		{
			"buffer":0,
			"byteOffset":697416,
			"byteLength":739752,
			"target":34962
		},
		{
			"buffer":0,
			"byteOffset":1437168,
			"byteLength":739752,
			"target":34962
		},
		{
			"buffer":0,
			"byteOffset":2176920,
			"byteLength":493168,
			"target":34962
		},
		{
			"buffer":0,
			"byteOffset":2670088,
			"byteLength":986336,
			"target":34962
		}
	],
	"nodes":[
		{
			"name":"geo1",
			"mesh":0
		}
	],
	"meshes":[
		{
			"primitives":[
				{
					"attributes":{
						"TANGENT":4,
						"TEXCOORD_0":3,
						"NORMAL":2,
						"POSITION":1
					},
					"indices":0
				}
			],
			"name":"gltf1"
		}
	],
	"scenes":[
		{
			"nodes":[0
			]
		}
	],
	"scene":0
}
